<svg width="87" height="173" viewBox="0 0 87 173" fill="none" xmlns="http://www.w3.org/2000/svg">
<path d="M43.2 86.4H64.8C64.8 74.5 74.5 64.8 86.4 64.8V43.2C62.5 43.2 43.2 62.6 43.2 86.4ZM0 86.4H21.6C21.6 50.6 50.6 21.6 86.4 21.6V0C38.7 0 0 38.7 0 86.4Z" fill="white"/>
<g opacity="0.6">
<path d="M43.2 86.3999H21.6C21.6 98.2999 11.9 108 0 108V129.6C23.9 129.6 43.2 110.2 43.2 86.3999ZM86.4 86.3999H64.8C64.8 122.2 35.8 151.2 0 151.2V172.8C47.7 172.8 86.4 134.1 86.4 86.3999Z" fill="white"/>
</g>
</svg>
